<svg aria-hidden="true" style="position:absolute;width:0;height:0;overflow:hidden" xmlns="http://www.w3.org/2000/svg"><defs>
<symbol id="icon-logo-header" viewBox="0 0 110 32"><path fill="#fff" style="fill:var(--color1, #fff)" d="M29.882 24.783a.238.238 0 0 1-.239-.24V8.349a.24.24 0 0 1 .408-.17.24.24 0 0 1 .07.17v16.194a.24.24 0 0 1-.239.24zM5.387 26.084c.527-.031.682.449.391-.089-.555-.321-.177.104-.391.089zM6.54 5.968c.14-.118.33-.262.535-.402s.401-.275.555-.373l.259-.166-.279.166c-.165.101-.388.239-.599.389-.431.292-.825.621-.825.621l.122-.053.233-.182zM.773 17.424c-.02-.106-.116-.344-.135-.515-.002.07.009.14.033.205l.061.207.053.166c.071.227.165.452.165.452v-.142a1.144 1.144 0 0 1-.177-.373zM23.469 10.869v.036l.018.026-.018-.063zM21.253 18.511l.073.237h.073l-.036-.305v-.094h.036c0 .2-.05.162-.145.162zM1.135 17.825c-.01-.185-.031-.399.025-.381-.089-.186-.155-.219-.025.381zM18.6 5.159l-.064-.248-.479-.189-.477-.181c.296.32.543.303 1.02.618zM23.517 19.052l-.14.404c-.059.351.198-.036.409-.393l-.152-.422s-.059.214-.117.411zM14.56 7.956l.159-.182h-.291v.182h.132z"/><path fill="#fff" style="fill:var(--color1, #fff)" d="m1.159 17.444.059.119c-.013-.038-.023-.07-.04-.114-.01-.012-.01-.002-.02-.005zM23.87 17.118c0-.023-.008-.043-.013-.066.165-1.602-.074-3.124-.074-4.881a7.241 7.241 0 0 0-.173-.838l-.211.444.071.219-.071.235h-.073l-.087-.234c0 .444-.015.641-.266.73l.185.02v.394c-.4 0-.4.055-.4.166v.394c-.598 0-.456.927-.505 1.727h-.086l.165.601h-.165l-.073-.601h-.165l-.071.588.071.013h.226v.247c0 .454-.111.773-.266.956l.258.089c-.068.537-.192.994-.192 1.365v.394c-.598 0-.634.349-.634.749h-.073l.109-.331v.242l-.251.076a5.347 5.347 0 0 1-.618 2.484l.14.409c-.251.04-.378.227-.378.56l.144.111c-.097 0-.147.662-.147.662h-.086l.396.202v.076l-.196.154a9.047 9.047 0 0 0 2.146-2.877c.09-.181.152-.374.183-.573.234-.472.427-.965.576-1.471.248-.627.424-1.28.523-1.948.061-.025.114-.043.152.02.01-.012-.028-.262-.073-.508zm-3.107 6.312h-.2v-.6h.2v.6zm3.054-6.034c0-.048.015-.096.02-.142v.076c-.003.025-.012.043-.02.066zM14.981 25.839v-.091l.21-.879c-.358-1.272-.495-3.334-.66-6.182l-.352-4.016v-.041h-.233l-.464.8h-.145l.073.151-.165.227.139-.015v.083c-.599.697-.495 1.045-.561 1.045l-.038.091v.076c-.2.628-.571 1.159-.649 1.606-.281.394-.461.954-.586 1.683a14.134 14.134 0 0 0-.452 2.499c-.25.467-.386.987-.396 1.517l-.309.969v.56l.083.729a.692.692 0 0 1-.045.166c.19.033.383.061.57.078 1.452.292 2.95.271 4.393-.061-.229-.348-.411-.677-.411-.992zM15.255 7.761h-.145v.076h.145v-.076z"/><path fill="#fff" style="fill:var(--color1, #fff)" d="M6.041 24.233c-.068-1.192-.17-2.051-.305-2.575l.309-.076.165-.561v-3.698c0-.523-.391-1.757-.7-3.697l-.048-.485.101-1.924-.249-.242-.102-.068v-.099l.074-.197c.204-.128.443-.191.683-.181h.073c1.38 0 2.072.57 2.072 1.075.259 0 .391.139.391.462.231.103.33.195.352.306-.155.192-.258.555-.258 1.118v.394c0-.212.918-1.737 2.097-4.578.578-.899 1.103-1.459 1.547-1.681.495 0 .91.235 1.238.397l1.397-.088h.376c.165 0 .444.103.84.166l.999 2.181c.107.121.238.643.391 1.643.135 0 .416-.691.84-2.035.923-1.3 1.737-2.168 2.442-2.587-1.139-.942-2.477-1.714-3.82-2.385a3.38 3.38 0 0 0-.439-.247c.471.166 1.342.676 1.547.57-.401-.144-.793-.31-1.176-.497a4.259 4.259 0 0 0-1.372-.464 6.086 6.086 0 0 0-1.651-.018c-.764.031-1.514.123-2.171.123-1.052 0-2.63.527-3.682 1.052a11.94 11.94 0 0 0-2.585 1.761 2.254 2.254 0 0 0-.3.113c.01.028.058.043.097.068-.284.265-.555.545-.811.838a.057.057 0 0 0 0-.026 3.898 3.898 0 0 1-.631.684c-.107.199-.121.263-.101.282-.106.151-.22.291-.319.447-.083-.089-.101-.331-.33-.23.277-.74.897-1.55 1.131-1.91l-.154.181-.315.417c-.226.303-.428.623-.428.623-.054-.166-.755.73-.403-.012a8.2 8.2 0 0 0-1.225 2.12c-.158.378-.294.765-.406 1.159-.053.192-.114.378-.154.565-.053.212-.102.419-.152.621.137-.296.225-.497.291-.439a3.571 3.571 0 0 1-.125.464c-.051.123-.033.21-.064.268a.725.725 0 0 1-.147.22c.086.525.3.465.461.788-.182 1.081-.071 1.234-.33 2.153l.215-.058a1.395 1.395 0 0 0-.048.436.918.918 0 0 0 .106.369c.119.23.19.482.21.74-.035.053-.155-.204-.261-.412.231.611-.028.634.253 1.222l-.196-.205-.19-.212c.15.497.495 1.188.216 1.01.281.386.571.946.908 1.5.312.537.672 1.044 1.076 1.514l-.195.046c.253.166.55.59.85.994s.66.828.938.919v.116l.522.331.368.182.165.078.051.045.051-.873zM35.366 10.508h1.486l1.864 5.815 1.922-5.836h1.156l1.922 5.836 1.866-5.815h1.441l-2.714 7.898h-1.194l-1.922-5.631-1.922 5.631h-1.184l-2.721-7.898zM62.732 10.508h1.519l2.356 6.028 2.346-6.028h1.486L67.2 18.406h-1.217l-3.251-7.898zM75.911 10.508h5.797v1.226H77.28v2.039h3.921v1.234H77.28v2.107h4.479v1.245h-5.848v-7.85zM58.822 18.358h-1.519l-2.358-6.028-2.344 6.028h-1.486l3.239-7.898h1.217l3.251 7.898zM40.742 20.765v1.045h-.258v-.979a.436.436 0 0 0-.128-.352.431.431 0 0 0-.352-.127c-.36.01-.568.26-.568.624v.828h-.259v-.979a.442.442 0 0 0-.48-.48.56.56 0 0 0-.425.185.562.562 0 0 0-.147.44v.828h-.253v-1.684h.253v.384a.66.66 0 0 1 .661-.392.587.587 0 0 1 .623.444.662.662 0 0 1 .687-.444.586.586 0 0 1 .478.177.598.598 0 0 1 .169.482zM44.202 21.548a.75.75 0 0 1-.636.274c-.36 0-.591-.225-.591-.518s.241-.482.649-.485h.571v-.099c0-.248-.165-.396-.466-.396a.979.979 0 0 0-.55.192l-.109-.184c.206-.149.454-.229.708-.227.429 0 .66.222.669.585v1.12h-.249l.003-.262zm0-.331v-.202h-.542c-.289 0-.441.086-.441.273s.155.308.398.308a.56.56 0 0 0 .581-.372l.003-.007zM47.095 20.492a.646.646 0 0 1 .623-.386v.253a.574.574 0 0 0-.429.14.564.564 0 0 0-.193.41v.901h-.256v-1.696h.256v.378zM50.149 21.325v.485h-.256v-2.387h.256v1.56l.893-.87h.304l-.649.662.718 1.038h-.307l-.593-.856-.366.366zM54.992 21.06h-1.417a.605.605 0 0 0 .629.542.745.745 0 0 0 .538-.213l.14.149a.925.925 0 0 1-.698.283.854.854 0 0 1-.854-.856.856.856 0 0 1 .854-.856c.563-.002.839.378.807.952zm-.232-.206a.524.524 0 0 0-.174-.392.52.52 0 0 0-.405-.137.582.582 0 0 0-.605.53h1.185zM58.147 21.694a.741.741 0 0 1-.391.129c-.254 0-.441-.149-.441-.484v-.967h-.251v-.204h.251v-.447h.253v.447h.55v.207h-.55v.922c0 .205.083.283.231.283a.524.524 0 0 0 .276-.088l.073.2zM60.641 19.629a.166.166 0 0 1-.102.153c-.03.012-.063.016-.095.009s-.061-.022-.084-.045c-.023-.023-.039-.053-.045-.085s-.003-.065.009-.096.034-.056.061-.074a.166.166 0 0 1 .209.02.165.165 0 0 1 .048.117zm-.292 2.181v-1.696h.256v1.696h-.256zM64.628 20.765v1.045h-.258v-.979a.436.436 0 0 0-.136-.355.433.433 0 0 0-.36-.12.552.552 0 0 0-.405.149.553.553 0 0 0-.177.394v.911h-.258v-1.696h.258v.374a.686.686 0 0 1 .672-.382.604.604 0 0 1 .664.659zM68.53 21.633c0 .497-.345.807-.872.807a1.186 1.186 0 0 1-.712-.244l.117-.194a.9.9 0 0 0 .584.215c.378 0 .626-.225.626-.578v-.258a.695.695 0 0 1-.639.354.818.818 0 0 1-.574-1.391.81.81 0 0 1 .574-.239.701.701 0 0 1 .646.352v-.344h.249v1.519zm-.256-.708a.595.595 0 0 0-.369-.552.599.599 0 0 0-.65.13.601.601 0 0 0 .092.921c.098.066.214.1.332.1a.564.564 0 0 0 .425-.169.57.57 0 0 0 .165-.428h.003z"/></symbol>
<symbol id="icon-agry" viewBox="0 0 38 32"><path d="M12.8 23.296 3.904 14.4.875 17.408 12.8 29.333l25.6-25.6L35.392.725 12.8 23.296z"/></symbol>
<symbol id="icon-left-right" viewBox="0 0 45 32"><path d="M16.022 20.392H.627v4.392h15.395v6.588l8.762-8.784-8.762-8.784v6.588zm13.132-2.196v-6.588h15.395V7.216H29.154V.628l-8.762 8.784 8.762 8.784z"/></symbol>
<symbol id="icon-send" viewBox="0 0 32 32"><path fill="#4781e5" style="fill:var(--color2, #4781e5)" d="M28.444 28.444H3.555V3.555h12.444V-.001H3.555A3.555 3.555 0 0 0-.001 3.555v24.889A3.555 3.555 0 0 0 3.555 32h24.889C30.4 32 32 30.4 32 28.444V16h-3.556v12.444zM19.556 0v3.556h6.382L8.462 21.032l2.507 2.507L28.445 6.063v6.382h3.556V.001H19.557z"/></symbol>
<symbol id="icon-stop" viewBox="0 0 32 32"><path d="M16 .444C7.413.444.444 7.413.444 16S7.413 31.556 16 31.556 31.556 24.587 31.556 16 24.587.444 16 .444zM3.556 16C3.556 9.124 9.125 3.556 16 3.556c2.878 0 5.522.98 7.622 2.629L6.184 23.623a12.29 12.29 0 0 1-2.629-7.622zM16 28.444a12.29 12.29 0 0 1-7.622-2.629L25.816 8.377a12.29 12.29 0 0 1 2.629 7.622c0 6.876-5.569 12.444-12.444 12.444z"/></symbol>
<symbol id="icon-agry2" viewBox="0 0 43 32"><path fill="#727e83" style="fill:var(--color3, #727e83)" d="m5.013 3.876 16.32 16.284 16.32-16.284 5.013 5.013-21.333 21.333L0 8.889l5.013-5.013z"/></symbol>
<symbol id="icon-Logo-auth" viewBox="0 0 32 32"><path d="M3.2 22.018h.806l1.013 3.148 1.043-3.16h.631l1.043 3.16 1.013-3.148h.783l-1.474 4.276h-.646l-1.044-3.051-1.043 3.051h-.646l-1.48-4.276zM18.063 22.018h.822l1.282 3.261 1.274-3.263h.807l-1.759 4.276h-.661l-1.765-4.274zM25.221 22.018h3.148v.667h-2.402v1.104h2.129v.668h-2.129v1.141H28.4v.667h-3.179v-4.246zM15.94 26.264h-.822l-1.283-3.263-1.274 3.263h-.807l1.762-4.276h.661l1.763 4.276zM9.751 28.278v.506h-.125v-.473a.212.212 0 0 0-.063-.172.208.208 0 0 0-.172-.061c-.176.005-.275.126-.275.302v.403H8.99v-.473a.212.212 0 0 0-.063-.172.235.235 0 0 0-.079-.05.227.227 0 0 0-.093-.011c-.173.005-.277.126-.277.302v.403h-.123v-.822h.123v.185c.059-.127.17-.188.321-.19s.267.079.302.215c.053-.145.171-.213.332-.215.199.002.316.123.316.321zM11.431 28.658c-.037.045-.085.081-.138.103s-.112.033-.17.029c-.176 0-.286-.109-.286-.25s.117-.235.315-.235h.275v-.048c0-.117-.077-.191-.226-.191a.474.474 0 0 0-.267.093l-.053-.089a.576.576 0 0 1 .344-.11c.207 0 .323.107.324.283v.542h-.122l.004-.127zm0-.157v-.098h-.262c-.141 0-.214.042-.214.133s.075.149.193.149c.141.001.25-.07.281-.184h.002zM12.836 28.146a.313.313 0 0 1 .302-.187v.123a.278.278 0 0 0-.302.268v.436h-.125v-.822h.125v.184zM14.319 28.549v.235h-.125v-1.155h.125v.755l.433-.421h.147l-.315.318.349.503h-.149l-.288-.414-.178.179zM16.672 28.422h-.688a.29.29 0 0 0 .305.261.359.359 0 0 0 .261-.103l.069.072a.458.458 0 0 1-.339.137.411.411 0 0 1-.414-.414.413.413 0 0 1 .414-.414c.27-.002.405.182.392.46zm-.111-.099a.267.267 0 0 0-.085-.19c-.026-.024-.058-.043-.092-.054s-.07-.016-.106-.013a.284.284 0 0 0-.294.258h.576zM18.202 28.728a.35.35 0 0 1-.19.062c-.123 0-.214-.072-.214-.235v-.47h-.122v-.098h.122v-.216h.123v.216h.267v.1h-.267v.447c0 .099.041.137.112.137a.255.255 0 0 0 .134-.042l.035.099zM19.414 27.729a.08.08 0 0 1-.052.074c-.015.006-.031.007-.047.004s-.03-.011-.041-.023a.081.081 0 0 1 .013-.125.08.08 0 0 1 .045-.014.08.08 0 0 1 .059.024.08.08 0 0 1 .018.027.07.07 0 0 1 .005.032zm-.142 1.057v-.822h.123v.822h-.123zM21.352 28.278v.506h-.125v-.473c0-.145-.09-.23-.238-.23a.274.274 0 0 0-.197.072.267.267 0 0 0-.086.191v.44h-.125v-.822h.125v.18c.059-.125.173-.183.326-.185.199.002.32.123.32.321zM23.242 28.699c0 .24-.168.391-.424.391a.579.579 0 0 1-.345-.117l.059-.093a.437.437 0 0 0 .283.104c.184 0 .304-.109.304-.28v-.125a.332.332 0 0 1-.31.171c-.227 0-.384-.164-.384-.397a.37.37 0 0 1 .38-.392.335.335 0 0 1 .313.172v-.167h.125l-.001.734zm-.125-.342a.29.29 0 0 0-.179-.267.29.29 0 1 0-.109.556.272.272 0 0 0 .207-.082.287.287 0 0 0 .081-.207zM10.98 18.491c.368-.022.476.312.274-.062-.388-.224-.124.073-.274.062zM11.784 4.495c.097-.082.235-.182.372-.279s.281-.191.388-.26l.18-.114-.194.117a7.056 7.056 0 0 0-.419.271c-.3.202-.579.432-.579.432l.086-.036.165-.132zM7.759 12.466c-.015-.073-.082-.24-.095-.358a.367.367 0 0 0 .023.143l.042.144.038.117c.05.158.11.314.11.314l-.004-.099a.784.784 0 0 1-.113-.262zM23.6 7.906v.019l.012.018-.012-.038zM22.053 13.221l.051.166h.051l-.026-.212v-.066h.026c0 .139-.034.112-.101.112zM8.011 12.746c-.007-.13-.022-.278.018-.265-.063-.129-.108-.152-.018.265zM20.201 3.932l-.045-.172-.331-.132-.334-.126c.204.223.377.212.709.43zM23.633 13.598l-.097.281c-.041.245.139-.025.285-.273l-.106-.294-.082.285zM17.381 5.879l.112-.127h-.204v.127h.092z"/><path d="m8.029 12.48.041.083-.028-.08c-.006-.007-.009-.001-.014-.003zM23.878 12.254l-.009-.046c.109-1.116-.052-2.173-.052-3.396a5.042 5.042 0 0 0-.121-.584l-.148.309.051.152-.051.163h-.05l-.059-.163c0 .31-.01.446-.185.509l.128.013v.274c-.278 0-.278.038-.278.117v.274c-.418 0-.318.646-.352 1.203h-.059l.112.417h-.112l-.05-.417h-.115l-.051.411.051.008h.157v.173c0 .316-.077.537-.184.664l.179.063c-.047.373-.134.69-.134.949v.274c-.418 0-.442.243-.442.522h-.051l.075-.235v.169l-.176.052a3.74 3.74 0 0 1-.431 1.73l.098.285c-.176.028-.265.158-.265.39l.1.076c-.068 0-.102.458-.102.458h-.059l.278.14v.053l-.138.107a6.299 6.299 0 0 0 1.505-2.007c.07-.108.088-.249.127-.399.163-.329.297-.672.401-1.024.173-.436.296-.89.365-1.354.042-.018.079-.03.106.013-.001 0-.026-.175-.06-.345zm-2.166 4.392h-.139v-.418h.139v.418zm2.131-4.199.014-.098c0 .03.004.052.004.052l-.017.045v.001zM17.676 18.321v-.063l.146-.613c-.25-.885-.352-2.319-.458-4.302l-.245-2.794v-.029h-.162l-.324.557h-.101l.051.105-.117.158.096-.011v.053c-.418.485-.344.728-.391.728l-.027.063v.052c-.139.436-.399.809-.453 1.116-.196.274-.321.664-.411 1.171a9.688 9.688 0 0 0-.315 1.739c-.175.325-.27.688-.277 1.057l-.216.675v.389l.059.506a.518.518 0 0 1-.031.117 4.6 4.6 0 0 0 .397.053 7.286 7.286 0 0 0 3.066-.042c-.16-.238-.287-.468-.287-.687zM17.867 5.742h-.101v.053h.101v-.053z"/><path d="M11.435 17.203c-.045-.829-.116-1.425-.212-1.79l.215-.053.113-.39v-2.575c0-.365-.272-1.223-.487-2.572l-.032-.337.07-1.339-.176-.169-.073-.053v-.063l.052-.137c.128-.105.355-.126.477-.126h.051c.964 0 1.446.396 1.446.748.182 0 .273.097.273.322.162.07.235.136.246.213-.108.133-.176.386-.176.772v.274c0-.147.64-1.209 1.463-3.184.404-.625.77-1.015 1.08-1.17.344 0 .634.164.864.276l.975-.059h.263c.114 0 .31.071.587.113l.698 1.517c.075.085.165.447.273 1.144.095 0 .29-.481.587-1.416.646-.904 1.212-1.509 1.703-1.8-.796-.658-1.732-1.195-2.668-1.662a2.295 2.295 0 0 0-.306-.171c.329.109.937.47 1.079.395a8.23 8.23 0 0 1-.818-.344 2.963 2.963 0 0 0-.959-.323 4.252 4.252 0 0 0-1.149-.012c-.533.021-1.057.085-1.516.085-.734 0-1.835.366-2.569.732a8.307 8.307 0 0 0-1.808 1.225 1.556 1.556 0 0 0-.21.078c.006.02.04.031.068.048a7.99 7.99 0 0 0-.566.583c-.001-.006-.002-.013-.005-.019-.164.195-.282.364-.44.477-.075.138-.085.182-.071.196-.073.104-.153.203-.222.311-.059-.062-.07-.231-.226-.16.193-.515.625-1.079.789-1.329l-.107.126-.22.29c-.159.211-.299.433-.299.433-.038-.111-.529.509-.281-.008a5.745 5.745 0 0 0-.857 1.478c-.11.264-.204.534-.282.808-.037.134-.08.264-.108.393l-.106.432c.096-.206.157-.343.203-.305-.021.109-.05.217-.088.322-.035.085-.023.146-.045.187a.514.514 0 0 1-.103.154c.059.364.21.324.322.548-.127.752-.05.858-.235 1.499l.15-.039a.975.975 0 0 0-.036.304c-.006.1.05.19.074.257.083.16.132.336.147.516-.025.036-.11-.142-.183-.287.161.425-.02.441.176.85l-.136-.143-.132-.147c.105.348.352.826.15.705.196.269.399.658.634 1.044.217.374.468.727.751 1.054l-.136.032c.176.117.384.411.593.688.194.268.466.581.655.64l.004.081s.182.117.365.225l.257.136.117.054.036.031.034-.611z"/></symbol>
<symbol id="icon-Whats-app" viewBox="0 0 24 24"><path d="m6.344 21.055.393.194c1.634.97 3.465 1.422 5.296 1.422 5.754 0 10.462-4.654 10.462-10.342 0-2.715-1.112-5.365-3.073-7.304a10.447 10.447 0 0 0-7.39-3.038c-5.753 0-10.46 4.654-10.395 10.407 0 1.939.588 3.813 1.569 5.43l.261.387-1.046 3.814 3.923-.97Z" fill="#00E676"/><path d="M20.533 3.99C18.31 1.728 15.236.5 12.098.5 5.428.5.067 5.865.132 12.393c0 2.069.589 4.073 1.57 5.883l-1.7 6.14L6.344 22.8c1.765.97 3.727 1.422 5.689 1.422 6.604 0 11.965-5.365 11.965-11.893 0-3.167-1.242-6.14-3.465-8.339ZM12.098 22.22c-1.765 0-3.53-.453-5.035-1.358l-.392-.194-3.792.97.98-3.684-.261-.388C.72 12.975 2.094 6.899 6.802 4.055c4.707-2.844 10.788-1.487 13.665 3.167 2.877 4.654 1.504 10.666-3.203 13.51-1.504.97-3.335 1.486-5.166 1.486Zm5.754-7.175-.72-.323s-1.045-.453-1.7-.776c-.065 0-.13-.065-.196-.065-.196 0-.326.065-.457.13 0 0-.066.064-.98 1.098a.36.36 0 0 1-.328.194h-.065a.498.498 0 0 1-.262-.129l-.327-.13c-.719-.322-1.373-.71-1.896-1.227-.13-.13-.327-.259-.458-.388-.457-.453-.915-.97-1.242-1.552l-.065-.129c-.066-.065-.066-.13-.131-.258 0-.13 0-.259.065-.324 0 0 .262-.323.458-.517.13-.129.196-.323.327-.452.13-.194.196-.453.13-.647-.065-.323-.85-2.068-1.045-2.456-.131-.194-.262-.258-.458-.323h-.72c-.13 0-.26.065-.392.065l-.065.064c-.131.065-.262.194-.393.259-.13.13-.196.258-.326.388-.458.581-.72 1.292-.72 2.003 0 .518.131 1.035.327 1.487l.066.194a10.773 10.773 0 0 0 2.419 3.297l.262.258c.196.194.392.323.523.517 1.373 1.164 2.942 2.004 4.707 2.457.197.064.458.064.654.129h.654c.327 0 .72-.13.98-.259.197-.129.328-.129.458-.258l.131-.13c.131-.129.262-.193.393-.323.13-.129.261-.258.327-.388.13-.258.196-.581.261-.904v-.453s-.065-.065-.196-.13Z" fill="#fff"/></symbol>
<symbol id="icon-logout" viewBox="0 0 32 32"><path fill="#fff" style="fill:var(--color1, #fff)" d="m12.604 22.382 2.507 2.507L24 16l-8.889-8.889-2.507 2.507 4.587 4.604H0v3.556h17.191l-4.587 4.604zM28.444 0H3.555A3.555 3.555 0 0 0-.001 3.556v7.111h3.556V3.556h24.889v24.889H3.555v-7.111H-.001v7.111a3.555 3.555 0 0 0 3.556 3.556h24.889c1.956 0 3.556-1.6 3.556-3.556V3.556C32 1.6 30.4 0 28.444 0z"/></symbol>
<symbol id="icon-more" viewBox="7 7 18 18"><path fill="#d3d5da" style="fill:var(--color4, #d3d5da)" d="M14.222 26.667c0 1.956-1.6 3.556-3.556 3.556s-3.556-1.6-3.556-3.556 1.6-3.555 3.556-3.555 3.556 1.6 3.556 3.555zm-3.555-14.223c-1.956 0-3.556 1.6-3.556 3.556s1.6 3.556 3.556 3.556 3.556-1.6 3.556-3.556-1.6-3.556-3.556-3.556zm0-10.666c-1.956 0-3.556 1.6-3.556 3.556s1.6 3.556 3.556 3.556 3.556-1.6 3.556-3.556-1.6-3.556-3.556-3.556zm10.666 7.111c1.956 0 3.556-1.6 3.556-3.556s-1.6-3.556-3.556-3.556-3.556 1.6-3.556 3.556 1.6 3.556 3.556 3.556zm0 3.555c-1.956 0-3.556 1.6-3.556 3.556s1.6 3.556 3.556 3.556 3.556-1.6 3.556-3.556-1.6-3.556-3.556-3.556zm0 10.667c-1.956 0-3.556 1.6-3.556 3.555s1.6 3.556 3.556 3.556 3.556-1.6 3.556-3.556-1.6-3.555-3.556-3.555z"/></symbol><symbol id="icon-logo1" ><path d="M28.444 0H3.555A3.566 3.566 0 0 0-.001 3.556v24.889c0 1.956 1.6 3.556 3.556 3.556h24.889c1.956 0 3.556-1.6 3.556-3.556V3.556C32 1.6 30.4 0 28.444 0zm0 28.444H3.555V3.555h24.889v24.889zm-8.64-12.693-5.333 6.862-3.804-4.587-5.333 6.862h21.333l-6.862-9.138z"/></symbol>
<symbol id="icon-add" viewBox="0 0 32 32"><path fill="#fff" style="fill:var(--color1, #fff)" d="M17.481 8.593h-2.963v5.926H8.592v2.963h5.926v5.926h2.963v-5.926h5.926v-2.963h-5.926V8.593zM16 1.185C7.822 1.185 1.185 7.822 1.185 16S7.822 30.815 16 30.815 30.815 24.178 30.815 16 24.178 1.185 16 1.185zm0 26.667C9.467 27.852 4.148 22.533 4.148 16S9.467 4.148 16 4.148 27.852 9.467 27.852 16 22.533 27.852 16 27.852z"/></symbol>
<symbol id="icon-link" viewBox="5 7 20 18"><path opacity=".87" d="M23.619 8.381h-6.095v3.048h6.095c2.514 0 4.571 2.057 4.571 4.571s-2.057 4.571-4.571 4.571h-6.095v3.048h6.095c4.206 0 7.619-3.413 7.619-7.619s-3.413-7.619-7.619-7.619zm-9.143 12.19H8.381c-2.514 0-4.571-2.057-4.571-4.571s2.057-4.571 4.571-4.571h6.095V8.381H8.381C4.175 8.381.762 11.794.762 16s3.413 7.619 7.619 7.619h6.095v-3.048zm-4.571-6.095h12.19v3.048H9.905v-3.048z"/></symbol>
<symbol id="icon-close" viewBox="0 0 32 32"><path d="m30.933 4.075-3.008-3.008L16 12.992 4.075 1.067 1.067 4.075 12.992 16 1.067 27.925l3.008 3.008L16 19.008l11.925 11.925 3.008-3.008L19.008 16 30.933 4.075z"/></symbol>
<symbol id="icon-delete" viewBox="0 0 32 32"><path fill="#4781e5" style="fill:var(--color2, #4781e5)" d="M22.222 1.778 20.444 0h-8.889L9.777 1.778H3.555v3.556h24.889V1.778h-6.222zM5.333 28.445C5.333 30.4 6.933 32 8.889 32h14.222c1.956 0 3.556-1.6 3.556-3.555V7.112H5.334v21.333zm3.556-17.778h14.222v17.778H8.889V10.667z"/></symbol>
<symbol id="icon-error" viewBox="0 0 32 32"><path fill="#ff8616" style="fill:var(--color6, #ff8616)" d="M16 8.381a1.52 1.52 0 0 0-1.524 1.524V16A1.52 1.52 0 0 0 16 17.524 1.52 1.52 0 0 0 17.524 16V9.905A1.52 1.52 0 0 0 16 8.381zm1.402 13.135a1.133 1.133 0 0 0-.137-.274l-.183-.229a1.525 1.525 0 0 0-1.661-.32 1.735 1.735 0 0 0-.503.32 1.523 1.523 0 0 0-.442 1.082c.002.199.044.396.122.579a1.368 1.368 0 0 0 .823.823 1.426 1.426 0 0 0 1.158 0 1.38 1.38 0 0 0 .823-.823c.078-.183.119-.38.122-.579a2.217 2.217 0 0 0 0-.305.95.95 0 0 0-.122-.274zM16 .762a15.241 15.241 0 0 0-14.078 9.407 15.24 15.24 0 0 0 11.105 20.776 15.24 15.24 0 0 0 17.051-20.776A15.24 15.24 0 0 0 16 .762zm0 27.428a12.196 12.196 0 0 1-11.263-7.525 12.19 12.19 0 1 1 11.262 7.526z"/></symbol>
<symbol id="icon-valid" viewBox="0 0 39 32"><path fill="#ff8616" style="fill:var(--color6, #ff8616)" d="M1.641 32h36.103L19.693.821 1.642 32zm5.694-3.282 12.357-21.35 12.357 21.35H7.335zm10.716-4.923h3.282v3.282h-3.282v-3.282zm0-9.846h3.282v6.564h-3.282v-6.564z"/></symbol>
<symbol id="icon-down" viewBox="7 5 24 24"><path fill="#727e83" style="fill:var(--color1, #727e83)" d="m5.013 1.209 16.32 16.284 16.32-16.284 5.013 5.013-21.333 21.333L0 6.222l5.013-5.013z"/></symbol>
<symbol id="icon-edit" viewBox="0 0 32 32"><path fill="#4781e5" style="fill:var(--color1, #4781e5)" d="M29.063 7.861c.64-.64.64-1.674 0-2.314l-3.84-3.84c-.328-.328-.739-.476-1.165-.476s-.837.164-1.149.476L19.906 4.71l6.154 6.154 3.003-3.003zM0 24.615v6.154h6.154l18.15-18.15-6.154-6.154L0 24.615zm4.792 2.872h-1.51v-1.51L18.15 11.109l1.51 1.51L4.792 27.487z"/></symbol>
</defs></svg>
